<svg width="41" height="40" viewBox="0 0 41 40" fill="none" xmlns="http://www.w3.org/2000/svg">
<g filter="url(#filter0_d_137_126)">
<path d="M20.2642 31.9964L9.83974 17.9586L30.6434 17.9524L20.2642 31.9964Z" fill="#A702A0"/>
</g>
<g filter="url(#filter1_d_137_126)">
<path d="M5 2L10.3856 18H15.2458L5 2Z" fill="#27C624" style="mix-blend-mode:darken" shape-rendering="crispEdges"/>
<path d="M20.3686 2L15.2458 18H25.2288L20.3686 2Z" fill="#27C624" style="mix-blend-mode:darken" shape-rendering="crispEdges"/>
<path d="M36 2L25.2288 18H30.089L36 2Z" fill="#27C624" style="mix-blend-mode:darken" shape-rendering="crispEdges"/>
<path d="M10.3856 18L5 2L15.2458 18M10.3856 18H30.089M10.3856 18H15.2458M15.2458 18L20.3686 2L25.2288 18M15.2458 18H25.2288M25.2288 18L36 2L30.089 18M25.2288 18H30.089" stroke="black" shape-rendering="crispEdges"/>
</g>
<defs>
<filter id="filter0_d_137_126" x="5.83972" y="17.9524" width="28.8037" height="22.044" filterUnits="userSpaceOnUse" color-interpolation-filters="sRGB">
<feFlood flood-opacity="0" result="BackgroundImageFix"/>
<feColorMatrix in="SourceAlpha" type="matrix" values="0 0 0 0 0 0 0 0 0 0 0 0 0 0 0 0 0 0 127 0" result="hardAlpha"/>
<feOffset dy="4"/>
<feGaussianBlur stdDeviation="2"/>
<feComposite in2="hardAlpha" operator="out"/>
<feColorMatrix type="matrix" values="0 0 0 0 0 0 0 0 0 0 0 0 0 0 0 0 0 0 0.25 0"/>
<feBlend mode="normal" in2="BackgroundImageFix" result="effect1_dropShadow_137_126"/>
<feBlend mode="normal" in="SourceGraphic" in2="effect1_dropShadow_137_126" result="shape"/>
</filter>
<filter id="filter1_d_137_126" x="0.526123" y="0.321045" width="39.9429" height="26.179" filterUnits="userSpaceOnUse" color-interpolation-filters="sRGB">
<feFlood flood-opacity="0" result="BackgroundImageFix"/>
<feColorMatrix in="SourceAlpha" type="matrix" values="0 0 0 0 0 0 0 0 0 0 0 0 0 0 0 0 0 0 127 0" result="hardAlpha"/>
<feOffset dy="4"/>
<feGaussianBlur stdDeviation="2"/>
<feComposite in2="hardAlpha" operator="out"/>
<feColorMatrix type="matrix" values="0 0 0 0 0 0 0 0 0 0 0 0 0 0 0 0 0 0 0.25 0"/>
<feBlend mode="normal" in2="BackgroundImageFix" result="effect1_dropShadow_137_126"/>
<feBlend mode="normal" in="SourceGraphic" in2="effect1_dropShadow_137_126" result="shape"/>
</filter>
</defs>
</svg>
